<mxfile host="app.diagrams.net" agent="Mozilla/5.0 (X11; Linux x86_64) AppleWebKit/537.36 (KHTML, like Gecko) Chrome/127.0.0.0 Safari/537.36 OPR/113.0.0.0" version="24.8.4">
  <diagram name="Page-1" id="E5QhQLgaL0l0aQa4PtNL">
    <mxGraphModel dx="2230" dy="779" grid="1" gridSize="10" guides="1" tooltips="1" connect="1" arrows="1" fold="1" page="1" pageScale="1" pageWidth="850" pageHeight="1100" math="0" shadow="0">
      <root>
        <mxCell id="0" />
        <mxCell id="1" parent="0" />
        <mxCell id="gBezTkMHUeghiTRg5znt-1" value="" style="rounded=0;whiteSpace=wrap;html=1;fillColor=#f5f5f5;gradientColor=#b3b3b3;strokeColor=#666666;" vertex="1" parent="1">
          <mxGeometry x="-110" y="40" width="1210" height="560" as="geometry" />
        </mxCell>
        <mxCell id="gBezTkMHUeghiTRg5znt-13" value="" style="rounded=1;whiteSpace=wrap;html=1;fillColor=#d5e8d4;gradientColor=#97d077;strokeColor=#82b366;" vertex="1" parent="1">
          <mxGeometry x="130" y="90" width="730" height="460" as="geometry" />
        </mxCell>
        <mxCell id="gBezTkMHUeghiTRg5znt-6" value="ports" style="rounded=1;whiteSpace=wrap;html=1;fontStyle=1;fillColor=#dae8fc;gradientColor=#7ea6e0;strokeColor=#6c8ebf;" vertex="1" parent="1">
          <mxGeometry x="145" y="140" width="120" height="60" as="geometry" />
        </mxCell>
        <mxCell id="gBezTkMHUeghiTRg5znt-5" value="" style="ellipse;whiteSpace=wrap;html=1;aspect=fixed;fillColor=#fff2cc;gradientColor=#ffd966;strokeColor=#d6b656;" vertex="1" parent="1">
          <mxGeometry x="302.5" y="120" width="395" height="395" as="geometry" />
        </mxCell>
        <mxCell id="gBezTkMHUeghiTRg5znt-12" style="edgeStyle=orthogonalEdgeStyle;rounded=0;orthogonalLoop=1;jettySize=auto;html=1;entryX=0;entryY=0.5;entryDx=0;entryDy=0;" edge="1" parent="1" source="gBezTkMHUeghiTRg5znt-4" target="gBezTkMHUeghiTRg5znt-10">
          <mxGeometry relative="1" as="geometry" />
        </mxCell>
        <mxCell id="gBezTkMHUeghiTRg5znt-4" value="usecase" style="rounded=1;whiteSpace=wrap;html=1;fontStyle=1;fillColor=#dae8fc;gradientColor=#7ea6e0;strokeColor=#6c8ebf;" vertex="1" parent="1">
          <mxGeometry x="440" y="200" width="120" height="60" as="geometry" />
        </mxCell>
        <mxCell id="gBezTkMHUeghiTRg5znt-9" style="edgeStyle=orthogonalEdgeStyle;rounded=0;orthogonalLoop=1;jettySize=auto;html=1;" edge="1" parent="1" source="gBezTkMHUeghiTRg5znt-3" target="gBezTkMHUeghiTRg5znt-4">
          <mxGeometry relative="1" as="geometry" />
        </mxCell>
        <mxCell id="gBezTkMHUeghiTRg5znt-3" value="domain" style="rounded=1;whiteSpace=wrap;html=1;fontStyle=1;fillColor=#dae8fc;gradientColor=#7ea6e0;strokeColor=#6c8ebf;" vertex="1" parent="1">
          <mxGeometry x="440" y="360" width="120" height="60" as="geometry" />
        </mxCell>
        <mxCell id="gBezTkMHUeghiTRg5znt-10" value="ports" style="rounded=1;whiteSpace=wrap;html=1;fontStyle=1;fillColor=#dae8fc;gradientColor=#7ea6e0;strokeColor=#6c8ebf;" vertex="1" parent="1">
          <mxGeometry x="720" y="380" width="120" height="60" as="geometry" />
        </mxCell>
        <mxCell id="gBezTkMHUeghiTRg5znt-16" value="" style="rounded=1;whiteSpace=wrap;html=1;fillColor=#d5e8d4;gradientColor=#97d077;strokeColor=#82b366;" vertex="1" parent="1">
          <mxGeometry x="865" y="90" width="210" height="460" as="geometry" />
        </mxCell>
        <mxCell id="gBezTkMHUeghiTRg5znt-15" style="edgeStyle=orthogonalEdgeStyle;rounded=0;orthogonalLoop=1;jettySize=auto;html=1;exitX=1;exitY=0.5;exitDx=0;exitDy=0;" edge="1" parent="1" source="gBezTkMHUeghiTRg5znt-10" target="gBezTkMHUeghiTRg5znt-14">
          <mxGeometry relative="1" as="geometry" />
        </mxCell>
        <mxCell id="gBezTkMHUeghiTRg5znt-14" value="repository" style="rounded=1;whiteSpace=wrap;html=1;fontStyle=1;fillColor=#dae8fc;gradientColor=#7ea6e0;strokeColor=#6c8ebf;" vertex="1" parent="1">
          <mxGeometry x="910" y="380" width="120" height="60" as="geometry" />
        </mxCell>
        <mxCell id="gBezTkMHUeghiTRg5znt-17" value="" style="rounded=1;whiteSpace=wrap;html=1;fillColor=#d5e8d4;gradientColor=#97d077;strokeColor=#82b366;" vertex="1" parent="1">
          <mxGeometry x="-90" y="90" width="210" height="460" as="geometry" />
        </mxCell>
        <mxCell id="gBezTkMHUeghiTRg5znt-18" style="edgeStyle=orthogonalEdgeStyle;rounded=0;orthogonalLoop=1;jettySize=auto;html=1;" edge="1" parent="1" source="gBezTkMHUeghiTRg5znt-2" target="gBezTkMHUeghiTRg5znt-6">
          <mxGeometry relative="1" as="geometry" />
        </mxCell>
        <mxCell id="gBezTkMHUeghiTRg5znt-2" value="consumer" style="rounded=1;whiteSpace=wrap;html=1;fontStyle=1;fillColor=#dae8fc;gradientColor=#7ea6e0;strokeColor=#6c8ebf;" vertex="1" parent="1">
          <mxGeometry x="-45" y="140" width="120" height="60" as="geometry" />
        </mxCell>
        <mxCell id="gBezTkMHUeghiTRg5znt-8" style="edgeStyle=orthogonalEdgeStyle;rounded=0;orthogonalLoop=1;jettySize=auto;html=1;entryX=0;entryY=0.5;entryDx=0;entryDy=0;" edge="1" parent="1" source="gBezTkMHUeghiTRg5znt-6" target="gBezTkMHUeghiTRg5znt-4">
          <mxGeometry relative="1" as="geometry" />
        </mxCell>
        <mxCell id="gBezTkMHUeghiTRg5znt-19" value="ciceroednilson@gmail.com" style="text;html=1;align=center;verticalAlign=middle;whiteSpace=wrap;rounded=0;fontStyle=1" vertex="1" parent="1">
          <mxGeometry x="970" y="570" width="60" height="30" as="geometry" />
        </mxCell>
        <mxCell id="gBezTkMHUeghiTRg5znt-22" value="Hexagonal Architecture" style="text;html=1;align=center;verticalAlign=middle;whiteSpace=wrap;rounded=0;fontStyle=1" vertex="1" parent="1">
          <mxGeometry x="425" y="50" width="160" height="30" as="geometry" />
        </mxCell>
      </root>
    </mxGraphModel>
  </diagram>
</mxfile>
